<svg width="32" height="32" viewBox="0 0 32 32" fill="none" xmlns="http://www.w3.org/2000/svg">
<g id="icon cool-icon-32">
<path id="coolicon" d="M17.1962 29.2905C16.4886 29.2926 15.8096 29.0112 15.3108 28.5092L4.86151 18.0625C4.31014 17.513 4.02748 16.7493 4.08818 15.9732L4.75485 7.21852C4.85007 5.90076 5.90073 4.85408 7.21885 4.76386L15.9735 4.09719C16.0428 4.08252 16.1108 4.08252 16.1802 4.08252C16.8864 4.08168 17.5637 4.36296 18.0615 4.86386L28.5108 15.3092C29.0112 15.8093 29.2923 16.4878 29.2923 17.1952C29.2923 17.9026 29.0112 18.5811 28.5108 19.0812L19.0815 28.5092C18.5826 29.0109 17.9037 29.2923 17.1962 29.2905ZM11.5388 8.87186C10.3319 8.8722 9.27573 9.68311 8.96364 10.849C8.65155 12.0148 9.1614 13.2449 10.2067 13.8482C11.2521 14.4514 12.5722 14.2774 13.4255 13.4239L13.4348 13.4159L13.4442 13.4065L13.4335 13.4159C14.1914 12.6513 14.4152 11.5059 14.0009 10.5123C13.5866 9.5186 12.6154 8.87153 11.5388 8.87186Z" fill="white"/>
</g>
</svg>
