<svg width="32" height="32" viewBox="0 0 32 32" fill="none" xmlns="http://www.w3.org/2000/svg">
<g id="icon cool-icon-47">
<g id="coolicon">
<path d="M15.8337 12.4443C15.0052 12.4443 14.3337 11.7478 14.3337 10.8887C14.3337 10.0296 15.0052 9.33317 15.8337 9.33317C16.6621 9.33317 17.3337 10.0296 17.3337 10.8887C17.3337 11.7478 16.6621 12.4443 15.8337 12.4443ZM25.3337 18.6665H13.3337L16.3337 14.5184L17.3337 15.5554L20.3337 11.4072L25.3337 18.6665ZM26.667 23.9998H10.667C9.19423 23.9998 8.00033 22.8059 8.00033 21.3332V5.33317C8.00033 3.86041 9.19423 2.6665 10.667 2.6665H26.667C28.1398 2.6665 29.3337 3.86041 29.3337 5.33317V21.3332C29.3337 22.8059 28.1398 23.9998 26.667 23.9998ZM10.667 5.33317V21.3332H26.667V5.33317H10.667ZM5.33366 10.6665H2.66699V26.6665C2.66699 28.1393 3.8609 29.3332 5.33366 29.3332H21.3337V26.6665H5.33366V10.6665Z" fill="white"/>
<path d="M15.8337 12.4443C15.0052 12.4443 14.3337 11.7478 14.3337 10.8887C14.3337 10.0296 15.0052 9.33317 15.8337 9.33317C16.6621 9.33317 17.3337 10.0296 17.3337 10.8887C17.3337 11.7478 16.6621 12.4443 15.8337 12.4443ZM25.3337 18.6665H13.3337L16.3337 14.5184L17.3337 15.5554L20.3337 11.4072L25.3337 18.6665ZM26.667 23.9998H10.667C9.19423 23.9998 8.00033 22.8059 8.00033 21.3332V5.33317C8.00033 3.86041 9.19423 2.6665 10.667 2.6665H26.667C28.1398 2.6665 29.3337 3.86041 29.3337 5.33317V21.3332C29.3337 22.8059 28.1398 23.9998 26.667 23.9998ZM10.667 5.33317V21.3332H26.667V5.33317H10.667ZM5.33366 10.6665H2.66699V26.6665C2.66699 28.1393 3.8609 29.3332 5.33366 29.3332H21.3337V26.6665H5.33366V10.6665Z" fill="white"/>
<path fill-rule="evenodd" clip-rule="evenodd" d="M15.8337 12.4443C15.0052 12.4443 14.3337 11.7478 14.3337 10.8887C14.3337 10.0296 15.0052 9.33317 15.8337 9.33317C16.6621 9.33317 17.3337 10.0296 17.3337 10.8887C17.3337 11.7478 16.6621 12.4443 15.8337 12.4443ZM25.3337 18.6665H13.3337L16.3337 14.5184L17.3337 15.5554L20.3337 11.4072L25.3337 18.6665ZM26.667 23.9998H10.667C9.19423 23.9998 8.00033 22.8059 8.00033 21.3332V5.33317C8.00033 3.86041 9.19423 2.6665 10.667 2.6665H26.667C28.1398 2.6665 29.3337 3.86041 29.3337 5.33317V21.3332C29.3337 22.8059 28.1398 23.9998 26.667 23.9998ZM10.667 5.33317V21.3332H26.667V5.33317H10.667ZM5.33366 10.6665H2.66699V26.6665C2.66699 28.1393 3.8609 29.3332 5.33366 29.3332H21.3337V26.6665H5.33366V10.6665Z" fill="white"/>
<path d="M15.8337 12.4443C15.0052 12.4443 14.3337 11.7478 14.3337 10.8887C14.3337 10.0296 15.0052 9.33317 15.8337 9.33317C16.6621 9.33317 17.3337 10.0296 17.3337 10.8887C17.3337 11.7478 16.6621 12.4443 15.8337 12.4443ZM25.3337 18.6665H13.3337L16.3337 14.5184L17.3337 15.5554L20.3337 11.4072L25.3337 18.6665ZM26.667 23.9998H10.667C9.19423 23.9998 8.00033 22.8059 8.00033 21.3332V5.33317C8.00033 3.86041 9.19423 2.6665 10.667 2.6665H26.667C28.1398 2.6665 29.3337 3.86041 29.3337 5.33317V21.3332C29.3337 22.8059 28.1398 23.9998 26.667 23.9998ZM10.667 5.33317V21.3332H26.667V5.33317H10.667ZM5.33366 10.6665H2.66699V26.6665C2.66699 28.1393 3.8609 29.3332 5.33366 29.3332H21.3337V26.6665H5.33366V10.6665Z" fill="white"/>
</g>
</g>
</svg>
